<?xml version="1.0" standalone="no"?><!DOCTYPE svg PUBLIC "-//W3C//DTD SVG 1.1//EN" "http://www.w3.org/Graphics/SVG/1.1/DTD/svg11.dtd"><svg t="1557136926717" class="icon" style="" viewBox="0 0 1175 1024" version="1.1" xmlns="http://www.w3.org/2000/svg" p-id="5706" id="mx_n_1557136926718" xmlns:xlink="http://www.w3.org/1999/xlink" width="229.4921875" height="200"><defs><style type="text/css"></style></defs><path d="M530.944182 11.023374a83.049024 83.049024 0 0 1 113.334234 30.672773l489.380214 852.249082a83.049024 83.049024 0 0 1-71.97582 124.352071H83.863603A83.049024 83.049024 0 0 1 11.777051 894.000595L500.216043 41.751513a83.049024 83.049024 0 0 1 30.728139-30.728139z" fill="#000000" p-id="5707"></path><path d="M572.302595 138.697406L131.699841 907.565269h882.091365z" fill="#FE9402" p-id="5708"></path><path d="M167.798484 894.000595h815.430681L814.030621 581.071873c-38.811577 18.547615-58.245049 41.469146-58.245049 68.764592v62.009938c11.183935 32.665949 6.754654 51.767225-13.453942 57.24846-30.229845 8.249536-64.999703-26.907884-90.301972 0-16.942001 17.938589-32.444485 44.791107-46.618185 80.502187H186.290733l-18.492249 44.403545z" fill="#000000" p-id="5709"></path><path d="M763.481448 719.320815c-0.996588-14.616628-6.81002-24.914707-17.495661-30.783505a1471.075041 1471.075041 0 0 0-37.427427-19.765668l-11.073203 14.838092-66.771415-28.568864c5.315138-1.439516 8.028072-5.093673 8.028072-10.907105 0-5.813432-2.712935-12.457354-8.028072-19.931766a1317.54508 1317.54508 0 0 1-20.208596-50.272342c-3.432693-9.412223-6.367092-27.959838-8.858562-55.753578-12.734184-18.879811-25.413001-31.115701-37.981087-36.596936-12.623452-5.536602-30.008381-9.246125-52.210153-11.239302-26.797152 9.135393-43.573054 15.336386-50.272342 18.658348s-15.170288 8.858563-25.357636 16.66517c-7.474412 2.214641-11.183935 6.422458-11.183935 12.51272s2.214641 13.011014 6.588556 20.70689l29.897649 47.061113-92.184417 204.688161c-2.159275 17.993955 1.328784 28.790328 10.519543 32.555217 9.190759 3.709523 19.101275 0.387562 29.842283-10.021248L483.218676 647.511092c8.138804 4.263183 15.723949 11.350033 22.700066 21.26055 7.08685 9.910517 14.062968 19.488838 21.039086 28.790328l-6.533189 115.604242c9.689053 10.131981 16.609805 15.225654 20.706889 15.225654 4.152451 0 12.401988-5.093673 24.74861-15.225654l9.965882-108.572758c1.66098-11.959059 0.442928-20.872988-3.709523-26.852517-4.152451-5.97953-16.056145-20.872988-35.655714-44.625009l4.650745-8.858563 149.266779 73.304605-4.041719 21.758845c21.039086 10.131981 36.26474 15.170288 45.621597 15.170288 9.301491 0 19.821034-5.038307 31.503263-15.170288z" fill="#000000" p-id="5710"></path><path d="M498.44433 515.407778l-29.067158 7.861975 9.689053 27.240079zM576.621145 563.022552l21.094452 74.024363-48.998924-25.468367zM589.244596 474.603025a46.119891 46.119891 0 1 0 0-92.295149 46.119891 46.119891 0 0 0 0 92.295149z" fill="#000000" p-id="5711"></path></svg>